
ISO-10303-21;
HEADER;
/* Generated by software containing ST-Developer
 * from STEP Tools, Inc. (www.steptools.com) 
 */
/* OPTION: using custom renumber hook */

FILE_DESCRIPTION(
/* description */ ('STEP AP242 Edition 2',
'CAx-IF Rec.Pracs.---Representation and Presentation of Product Manufa
cturing Information (PMI)---4.0---2014-10-13',
'CAx-IF Rec.Pracs.---3D Tessellated Geometry---0.4---2014-09-14','2;1',
'CAx-IF Rec.Pracs.---User Defined Attributes---1.5---2016-08-15'),
/* implementation_level */ '2;1');

FILE_NAME(
/* name */ 'Part Studio 1',
/* time_stamp */ '2026-06-08T22:42:15Z',
/* author */ (''),
/* organization */ (''),
/* preprocessor_version */ 'ST-DEVELOPER v20',
/* originating_system */ 'ONSHAPE BY PTC INC, 1.216',
/* authorisation */ '  ');

FILE_SCHEMA (('AP242_MANAGED_MODEL_BASED_3D_ENGINEERING_MIM_LF { 1 0 10303 442 3 1 4 }'));
ENDSEC;

DATA;
#10=SHAPE_REPRESENTATION_RELATIONSHIP('','',#155,#11);
#11=ADVANCED_BREP_SHAPE_REPRESENTATION('',(#153),#269);
#12=PLANE('',#163);
#13=PLANE('',#165);
#14=PLANE('',#169);
#15=PLANE('',#170);
#16=PLANE('',#172);
#17=PLANE('',#177);
#18=ORIENTED_EDGE('',*,*,#42,.T.);
#19=ORIENTED_EDGE('',*,*,#43,.F.);
#20=ORIENTED_EDGE('',*,*,#44,.F.);
#21=ORIENTED_EDGE('',*,*,#45,.T.);
#22=ORIENTED_EDGE('',*,*,#46,.F.);
#23=ORIENTED_EDGE('',*,*,#44,.T.);
#24=ORIENTED_EDGE('',*,*,#43,.T.);
#25=ORIENTED_EDGE('',*,*,#45,.F.);
#26=ORIENTED_EDGE('',*,*,#47,.F.);
#27=ORIENTED_EDGE('',*,*,#48,.T.);
#28=ORIENTED_EDGE('',*,*,#42,.F.);
#29=ORIENTED_EDGE('',*,*,#47,.T.);
#30=ORIENTED_EDGE('',*,*,#49,.T.);
#31=ORIENTED_EDGE('',*,*,#48,.F.);
#32=ORIENTED_EDGE('',*,*,#50,.T.);
#33=ORIENTED_EDGE('',*,*,#51,.F.);
#34=ORIENTED_EDGE('',*,*,#51,.T.);
#35=ORIENTED_EDGE('',*,*,#52,.F.);
#36=ORIENTED_EDGE('',*,*,#53,.F.);
#37=ORIENTED_EDGE('',*,*,#52,.T.);
#38=ORIENTED_EDGE('',*,*,#53,.T.);
#39=ORIENTED_EDGE('',*,*,#49,.F.);
#40=ORIENTED_EDGE('',*,*,#46,.T.);
#41=ORIENTED_EDGE('',*,*,#50,.F.);
#42=EDGE_CURVE('',#54,#54,#66,.T.);
#43=EDGE_CURVE('',#55,#55,#67,.T.);
#44=EDGE_CURVE('',#56,#56,#68,.T.);
#45=EDGE_CURVE('',#57,#57,#69,.T.);
#46=EDGE_CURVE('',#58,#58,#70,.T.);
#47=EDGE_CURVE('',#59,#59,#71,.T.);
#48=EDGE_CURVE('',#60,#60,#72,.T.);
#49=EDGE_CURVE('',#61,#61,#73,.T.);
#50=EDGE_CURVE('',#62,#62,#74,.T.);
#51=EDGE_CURVE('',#63,#63,#75,.T.);
#52=EDGE_CURVE('',#64,#64,#76,.T.);
#53=EDGE_CURVE('',#65,#65,#77,.T.);
#54=VERTEX_POINT('',#234);
#55=VERTEX_POINT('',#236);
#56=VERTEX_POINT('',#239);
#57=VERTEX_POINT('',#241);
#58=VERTEX_POINT('',#244);
#59=VERTEX_POINT('',#248);
#60=VERTEX_POINT('',#250);
#61=VERTEX_POINT('',#254);
#62=VERTEX_POINT('',#257);
#63=VERTEX_POINT('',#259);
#64=VERTEX_POINT('',#262);
#65=VERTEX_POINT('',#265);
#66=CIRCLE('',#158,0.03175);
#67=CIRCLE('',#159,0.03175);
#68=CIRCLE('',#161,0.0381);
#69=CIRCLE('',#162,0.0381);
#70=CIRCLE('',#164,0.0181400970034359);
#71=CIRCLE('',#167,0.0381);
#72=CIRCLE('',#168,0.0381);
#73=CIRCLE('',#171,0.03175);
#74=CIRCLE('',#173,0.0181400970034359);
#75=CIRCLE('',#174,0.0381);
#76=CIRCLE('',#176,0.0381);
#77=CIRCLE('',#178,0.03175);
#78=EDGE_LOOP('',(#18));
#79=EDGE_LOOP('',(#19));
#80=EDGE_LOOP('',(#20));
#81=EDGE_LOOP('',(#21));
#82=EDGE_LOOP('',(#22));
#83=EDGE_LOOP('',(#23));
#84=EDGE_LOOP('',(#24));
#85=EDGE_LOOP('',(#25));
#86=EDGE_LOOP('',(#26));
#87=EDGE_LOOP('',(#27));
#88=EDGE_LOOP('',(#28));
#89=EDGE_LOOP('',(#29));
#90=EDGE_LOOP('',(#30));
#91=EDGE_LOOP('',(#31));
#92=EDGE_LOOP('',(#32));
#93=EDGE_LOOP('',(#33));
#94=EDGE_LOOP('',(#34));
#95=EDGE_LOOP('',(#35));
#96=EDGE_LOOP('',(#36));
#97=EDGE_LOOP('',(#37));
#98=EDGE_LOOP('',(#38));
#99=EDGE_LOOP('',(#39));
#100=EDGE_LOOP('',(#40));
#101=EDGE_LOOP('',(#41));
#102=FACE_BOUND('',#78,.T.);
#103=FACE_BOUND('',#79,.T.);
#104=FACE_BOUND('',#80,.T.);
#105=FACE_BOUND('',#81,.T.);
#106=FACE_BOUND('',#82,.T.);
#107=FACE_BOUND('',#83,.T.);
#108=FACE_BOUND('',#84,.T.);
#109=FACE_BOUND('',#85,.T.);
#110=FACE_BOUND('',#86,.T.);
#111=FACE_BOUND('',#87,.T.);
#112=FACE_BOUND('',#88,.T.);
#113=FACE_BOUND('',#89,.T.);
#114=FACE_BOUND('',#90,.T.);
#115=FACE_BOUND('',#91,.T.);
#116=FACE_BOUND('',#92,.T.);
#117=FACE_BOUND('',#93,.T.);
#118=FACE_BOUND('',#94,.T.);
#119=FACE_BOUND('',#95,.T.);
#120=FACE_BOUND('',#96,.T.);
#121=FACE_BOUND('',#97,.T.);
#122=FACE_BOUND('',#98,.T.);
#123=FACE_BOUND('',#99,.T.);
#124=FACE_BOUND('',#100,.T.);
#125=FACE_BOUND('',#101,.T.);
#126=CYLINDRICAL_SURFACE('',#157,0.03175);
#127=CYLINDRICAL_SURFACE('',#160,0.0381);
#128=CYLINDRICAL_SURFACE('',#166,0.0381);
#129=CYLINDRICAL_SURFACE('',#175,0.0381);
#130=CYLINDRICAL_SURFACE('',#179,0.03175);
#131=CYLINDRICAL_SURFACE('',#180,0.0181400970034359);
#132=ADVANCED_FACE('',(#102,#103),#126,.T.);
#133=ADVANCED_FACE('',(#104,#105),#127,.T.);
#134=ADVANCED_FACE('',(#106,#107),#12,.T.);
#135=ADVANCED_FACE('',(#108,#109),#13,.F.);
#136=ADVANCED_FACE('',(#110,#111),#128,.T.);
#137=ADVANCED_FACE('',(#112,#113),#14,.T.);
#138=ADVANCED_FACE('',(#114,#115),#15,.F.);
#139=ADVANCED_FACE('',(#116,#117),#16,.F.);
#140=ADVANCED_FACE('',(#118,#119),#129,.T.);
#141=ADVANCED_FACE('',(#120,#121),#17,.T.);
#142=ADVANCED_FACE('',(#122,#123),#130,.T.);
#143=ADVANCED_FACE('',(#124,#125),#131,.F.);
#144=CLOSED_SHELL('',(#132,#133,#134,#135,#136,#137,#138,#139,#140,#141,
#142,#143));
#145=STYLED_ITEM('',(#146),#153);
#146=PRESENTATION_STYLE_ASSIGNMENT((#147));
#147=SURFACE_STYLE_USAGE(.BOTH.,#148);
#148=SURFACE_SIDE_STYLE('',(#149));
#149=SURFACE_STYLE_FILL_AREA(#150);
#150=FILL_AREA_STYLE('',(#151));
#151=FILL_AREA_STYLE_COLOUR('',#152);
#152=COLOUR_RGB('',0.615686274509804,0.811764705882353,0.929411764705882);
#153=MANIFOLD_SOLID_BREP('Part 1',#144);
#154=SHAPE_DEFINITION_REPRESENTATION(#274,#155);
#155=SHAPE_REPRESENTATION('Part 1',(#156),#269);
#156=AXIS2_PLACEMENT_3D('',#231,#181,#182);
#157=AXIS2_PLACEMENT_3D('',#232,#183,#184);
#158=AXIS2_PLACEMENT_3D('',#233,#185,#186);
#159=AXIS2_PLACEMENT_3D('',#235,#187,#188);
#160=AXIS2_PLACEMENT_3D('',#237,#189,#190);
#161=AXIS2_PLACEMENT_3D('',#238,#191,#192);
#162=AXIS2_PLACEMENT_3D('',#240,#193,#194);
#163=AXIS2_PLACEMENT_3D('',#242,#195,#196);
#164=AXIS2_PLACEMENT_3D('',#243,#197,#198);
#165=AXIS2_PLACEMENT_3D('',#245,#199,#200);
#166=AXIS2_PLACEMENT_3D('',#246,#201,#202);
#167=AXIS2_PLACEMENT_3D('',#247,#203,#204);
#168=AXIS2_PLACEMENT_3D('',#249,#205,#206);
#169=AXIS2_PLACEMENT_3D('',#251,#207,#208);
#170=AXIS2_PLACEMENT_3D('',#252,#209,#210);
#171=AXIS2_PLACEMENT_3D('',#253,#211,#212);
#172=AXIS2_PLACEMENT_3D('',#255,#213,#214);
#173=AXIS2_PLACEMENT_3D('',#256,#215,#216);
#174=AXIS2_PLACEMENT_3D('',#258,#217,#218);
#175=AXIS2_PLACEMENT_3D('',#260,#219,#220);
#176=AXIS2_PLACEMENT_3D('',#261,#221,#222);
#177=AXIS2_PLACEMENT_3D('',#263,#223,#224);
#178=AXIS2_PLACEMENT_3D('',#264,#225,#226);
#179=AXIS2_PLACEMENT_3D('',#266,#227,#228);
#180=AXIS2_PLACEMENT_3D('',#267,#229,#230);
#181=DIRECTION('',(0.,0.,1.));
#182=DIRECTION('',(1.,0.,0.));
#183=DIRECTION('',(0.,1.,0.));
#184=DIRECTION('',(0.,0.,1.));
#185=DIRECTION('',(0.,-1.,0.));
#186=DIRECTION('',(0.,0.,-1.));
#187=DIRECTION('',(0.,-1.,0.));
#188=DIRECTION('',(0.,0.,-1.));
#189=DIRECTION('',(0.,1.,0.));
#190=DIRECTION('',(0.,0.,1.));
#191=DIRECTION('',(0.,-1.,0.));
#192=DIRECTION('',(0.,0.,-1.));
#193=DIRECTION('',(0.,-1.,0.));
#194=DIRECTION('',(0.,0.,-1.));
#195=DIRECTION('',(0.,-1.,0.));
#196=DIRECTION('',(1.,0.,0.));
#197=DIRECTION('',(0.,-1.,0.));
#198=DIRECTION('',(0.,0.,-1.));
#199=DIRECTION('',(0.,-1.,0.));
#200=DIRECTION('',(1.,0.,0.));
#201=DIRECTION('',(0.,1.,0.));
#202=DIRECTION('',(0.,0.,1.));
#203=DIRECTION('',(0.,-1.,0.));
#204=DIRECTION('',(0.,0.,-1.));
#205=DIRECTION('',(0.,-1.,0.));
#206=DIRECTION('',(0.,0.,-1.));
#207=DIRECTION('',(0.,-1.,0.));
#208=DIRECTION('',(1.,0.,0.));
#209=DIRECTION('',(0.,-1.,0.));
#210=DIRECTION('',(1.,0.,0.));
#211=DIRECTION('',(0.,-1.,0.));
#212=DIRECTION('',(0.,0.,-1.));
#213=DIRECTION('',(0.,-1.,0.));
#214=DIRECTION('',(1.,0.,0.));
#215=DIRECTION('',(0.,-1.,0.));
#216=DIRECTION('',(0.,0.,-1.));
#217=DIRECTION('',(0.,-1.,0.));
#218=DIRECTION('',(0.,0.,-1.));
#219=DIRECTION('',(0.,-1.,0.));
#220=DIRECTION('',(0.,0.,-1.));
#221=DIRECTION('',(0.,-1.,0.));
#222=DIRECTION('',(0.,0.,-1.));
#223=DIRECTION('',(0.,-1.,0.));
#224=DIRECTION('',(1.,0.,0.));
#225=DIRECTION('',(0.,-1.,0.));
#226=DIRECTION('',(0.,0.,-1.));
#227=DIRECTION('',(0.,1.,0.));
#228=DIRECTION('',(0.,0.,1.));
#229=DIRECTION('',(0.,-1.,0.));
#230=DIRECTION('',(0.,0.,-1.));
#231=CARTESIAN_POINT('',(0.,0.,0.));
#232=CARTESIAN_POINT('',(0.,-0.0127,1.94412679364642E-18));
#233=CARTESIAN_POINT('',(0.,-0.0015875,1.94412679364642E-18));
#234=CARTESIAN_POINT('',(0.,-0.0015875,-0.03175));
#235=CARTESIAN_POINT('',(0.,-0.0127,1.94412679364642E-18));
#236=CARTESIAN_POINT('',(0.,-0.0127,-0.03175));
#237=CARTESIAN_POINT('',(0.,-0.015875,1.01094593269614E-18));
#238=CARTESIAN_POINT('',(0.,-0.015875,1.01094593269614E-18));
#239=CARTESIAN_POINT('',(0.,-0.015875,-0.0381));
#240=CARTESIAN_POINT('',(0.,-0.0127,1.01094593269614E-18));
#241=CARTESIAN_POINT('',(0.,-0.0127,-0.0381));
#242=CARTESIAN_POINT('',(0.,-0.015875,0.));
#243=CARTESIAN_POINT('',(0.,-0.015875,1.11076058657401E-18));
#244=CARTESIAN_POINT('',(0.,-0.015875,-0.0181400970034359));
#245=CARTESIAN_POINT('',(0.,-0.0127,0.));
#246=CARTESIAN_POINT('',(0.,-0.0015875,2.33295215237571E-18));
#247=CARTESIAN_POINT('',(0.,-0.0015875,2.33295215237571E-18));
#248=CARTESIAN_POINT('',(0.,-0.0015875,-0.0381));
#249=CARTESIAN_POINT('',(0.,0.0015875,2.33295215237571E-18));
#250=CARTESIAN_POINT('',(0.,0.0015875,-0.0381));
#251=CARTESIAN_POINT('',(0.,-0.0015875,0.));
#252=CARTESIAN_POINT('',(0.,0.0015875,0.));
#253=CARTESIAN_POINT('',(0.,0.0015875,1.94412679364642E-18));
#254=CARTESIAN_POINT('',(0.,0.0015875,-0.03175));
#255=CARTESIAN_POINT('',(0.,0.015875,0.));
#256=CARTESIAN_POINT('',(0.,0.015875,1.11076058657401E-18));
#257=CARTESIAN_POINT('',(0.,0.015875,-0.0181400970034359));
#258=CARTESIAN_POINT('',(0.,0.015875,1.01094593269614E-18));
#259=CARTESIAN_POINT('',(0.,0.015875,-0.0381));
#260=CARTESIAN_POINT('',(0.,0.015875,1.01094593269614E-18));
#261=CARTESIAN_POINT('',(0.,0.0127,1.01094593269614E-18));
#262=CARTESIAN_POINT('',(0.,0.0127,-0.0381));
#263=CARTESIAN_POINT('',(0.,0.0127,0.));
#264=CARTESIAN_POINT('',(0.,0.0127,1.94412679364642E-18));
#265=CARTESIAN_POINT('',(0.,0.0127,-0.03175));
#266=CARTESIAN_POINT('',(0.,-0.0127,1.94412679364642E-18));
#267=CARTESIAN_POINT('',(0.,0.092202,1.11076058657401E-18));
#268=MECHANICAL_DESIGN_GEOMETRIC_PRESENTATION_REPRESENTATION('',(#145),
#269);
#269=(
GEOMETRIC_REPRESENTATION_CONTEXT(3)
GLOBAL_UNCERTAINTY_ASSIGNED_CONTEXT((#270))
GLOBAL_UNIT_ASSIGNED_CONTEXT((#273,#272,#271))
REPRESENTATION_CONTEXT('Part 1','TOP_LEVEL_ASSEMBLY_PART')
);
#270=UNCERTAINTY_MEASURE_WITH_UNIT(LENGTH_MEASURE(1.E-8),#273,
'DISTANCE_ACCURACY_VALUE','Maximum Tolerance applied to model');
#271=(
NAMED_UNIT(*)
SI_UNIT($,.STERADIAN.)
SOLID_ANGLE_UNIT()
);
#272=(
NAMED_UNIT(*)
PLANE_ANGLE_UNIT()
SI_UNIT($,.RADIAN.)
);
#273=(
LENGTH_UNIT()
NAMED_UNIT(*)
SI_UNIT($,.METRE.)
);
#274=PRODUCT_DEFINITION_SHAPE('','',#275);
#275=PRODUCT_DEFINITION('','',#277,#276);
#276=PRODUCT_DEFINITION_CONTEXT('',#283,'design');
#277=PRODUCT_DEFINITION_FORMATION_WITH_SPECIFIED_SOURCE('','',#279,
 .NOT_KNOWN.);
#278=PRODUCT_RELATED_PRODUCT_CATEGORY('','',(#279));
#279=PRODUCT('Part 1','Part 1','Part 1',(#281));
#280=PRODUCT_CATEGORY('','');
#281=PRODUCT_CONTEXT('',#283,'mechanical');
#282=APPLICATION_PROTOCOL_DEFINITION('international standard',
'ap242_managed_model_based_3d_engineering',2020,#283);
#283=APPLICATION_CONTEXT('managed model based 3d engineering');
ENDSEC;
END-ISO-10303-21;
